<?xml version="1.0" encoding="utf-8"?>
<!-- Generator: Adobe Illustrator 19.2.0, SVG Export Plug-In . SVG Version: 6.00 Build 0)  -->
<svg version="1.1" id="Layer_1" xmlns="http://www.w3.org/2000/svg" xmlns:xlink="http://www.w3.org/1999/xlink" x="0px" y="0px"
	 viewBox="0 0 924 770" style="enable-background:new 0 0 924 770;" xml:space="preserve">
<style type="text/css">
	.st0{fill:url(#SVGID_1_);}
	.st1{fill:url(#SVGID_2_);}
	.st2{fill:url(#SVGID_3_);}
	.st3{fill:url(#SVGID_4_);}
	.st4{fill:url(#SVGID_5_);}
	.st5{fill:url(#SVGID_6_);}
	.st6{fill:url(#SVGID_7_);}
	.st7{fill:url(#SVGID_8_);}
	.st8{fill:url(#SVGID_9_);}
	.st9{fill:#A67C52;}
	.st10{fill:url(#SVGID_10_);}
	.st11{fill:#090E17;}
	.st12{fill:url(#SVGID_11_);}
	.st13{fill:url(#SVGID_12_);}
	.st14{fill:url(#SVGID_13_);}
	.st15{fill:url(#SVGID_14_);}
	.st16{fill:url(#SVGID_15_);}
	.st17{fill:url(#SVGID_16_);}
	.st18{fill:url(#SVGID_17_);}
	.st19{fill:url(#SVGID_18_);}
	.st20{fill:url(#SVGID_19_);}
	.st21{fill:url(#SVGID_20_);}
	.st22{fill:url(#SVGID_21_);}
	.st23{fill:url(#SVGID_22_);}
	.st24{fill:url(#SVGID_23_);}
	.st25{fill:url(#SVGID_24_);}
	.st26{fill:url(#SVGID_25_);}
	.st27{fill:url(#SVGID_26_);}
	.st28{fill:url(#SVGID_27_);}
	.st29{fill:url(#SVGID_28_);}
	.st30{fill:url(#SVGID_29_);}
	.st31{fill:url(#SVGID_30_);}
	.st32{fill:url(#SVGID_31_);}
	.st33{fill:url(#SVGID_32_);}
	.st34{fill:url(#SVGID_33_);}
	.st35{display:none;}
	.st36{display:inline;fill:#603813;}
	.st37{display:inline;fill:#C69C6D;}
	.st38{display:inline;fill:#754C24;}
	.st39{display:inline;fill:#A67C52;}
	.st40{display:inline;}
	.st41{fill:#0E141F;}
	.st42{fill:url(#SVGID_34_);}
	.st43{fill:url(#SVGID_35_);}
	.st44{fill:url(#SVGID_36_);}
	.st45{fill:url(#SVGID_37_);}
</style>
<g id="Illustration">
	
		<linearGradient id="SVGID_1_" gradientUnits="userSpaceOnUse" x1="44.4087" y1="568.5175" x2="230.9928" y2="568.5175" gradientTransform="matrix(0.998 6.330603e-02 6.330603e-02 -0.998 -10.3783 700.4608)">
		<stop  offset="0.2" style="stop-color:#603813"/>
		<stop  offset="0.5" style="stop-color:#C69C6D"/>
		<stop  offset="0.8" style="stop-color:#603813"/>
	</linearGradient>
	<path class="st0" d="M81.2,9.3c19.8,57.1,46.1,84.5,90.4,125c16.3,14.8,36.9,30,49.3,48.4c17.3,25.7,20.9,62.2,27.2,91.8
		c-17.6-15.8-29.7-34.3-49.9-48.3c-26.4-18.4-51.1-34.7-73.9-58C82.3,125.6,65.8,68.9,81.2,9.3C86,23.3,80.5,12,81.2,9.3z"/>
	
		<linearGradient id="SVGID_2_" gradientUnits="userSpaceOnUse" x1="-9.8253" y1="431.3185" x2="211.4892" y2="431.3185" gradientTransform="matrix(0.9994 -3.416667e-02 -3.416667e-02 -0.9994 36.3152 726.3547)">
		<stop  offset="0.2" style="stop-color:#603813"/>
		<stop  offset="0.5" style="stop-color:#C69C6D"/>
		<stop  offset="0.8" style="stop-color:#603813"/>
	</linearGradient>
	<path class="st1" d="M235,348.3c-15.6-1.1-34.1-9.6-50.8-11.7c-27.6-3.3-55.6-5.5-83-11c-49.8-10.1-77.3-44.3-91.5-90.2
		c40.7,20.5,69.7,43,116.7,53.9C165.7,298.4,218.4,306.6,235,348.3C233.6,348.2,231.4,339.2,235,348.3z"/>
	
		<linearGradient id="SVGID_3_" gradientUnits="userSpaceOnUse" x1="-0.8276" y1="491.6394" x2="224.9851" y2="491.6394" gradientTransform="matrix(0.998 6.330603e-02 6.330603e-02 -0.998 -10.3783 700.4608)">
		<stop  offset="0.2" style="stop-color:#603813"/>
		<stop  offset="0.5" style="stop-color:#C69C6D"/>
		<stop  offset="0.8" style="stop-color:#603813"/>
	</linearGradient>
	<path class="st2" d="M25.6,120.2c29.7,40.4,57.9,70.7,103.2,93.5c47.4,23.8,93.9,46,110.8,99.9c-44.8-39-103.1-38.4-153.7-65.9
		C38.7,222.1,27.1,170.6,25.6,120.2C32.4,129.6,26.3,145.8,25.6,120.2z"/>
	
		<linearGradient id="SVGID_4_" gradientUnits="userSpaceOnUse" x1="4.7917" y1="375.6355" x2="208.2697" y2="375.6355" gradientTransform="matrix(0.9949 -0.1012 -0.1012 -0.9949 63.9743 739.1677)">
		<stop  offset="0.2" style="stop-color:#603813"/>
		<stop  offset="0.5" style="stop-color:#C69C6D"/>
		<stop  offset="0.8" style="stop-color:#603813"/>
	</linearGradient>
	<path class="st3" d="M236.1,373.2c-43.9-2.3-85.5,16.4-129.6,11.6c-20.9-2.3-79.4-21-78.7-50.3c36.9,9.5,66.6,13.8,105,15
		C167.3,350.6,206.9,352.7,236.1,373.2C208,371.8,226.4,366.4,236.1,373.2z"/>
	
		<linearGradient id="SVGID_5_" gradientUnits="userSpaceOnUse" x1="99.3181" y1="315.8183" x2="210.1932" y2="315.8183" gradientTransform="matrix(0.9914 -0.1309 -0.1309 -0.9914 74.4476 745.8336)">
		<stop  offset="0" style="stop-color:#42210B"/>
		<stop  offset="0.5" style="stop-color:#A67C52"/>
		<stop  offset="1" style="stop-color:#42210B"/>
	</linearGradient>
	<path class="st4" d="M240.5,397.7c-21.3,1.9-104.2,63.7-108.4,26C128,387.1,239,391.3,240.5,397.7
		C212.1,400.2,240.4,397.2,240.5,397.7z"/>
	
		<linearGradient id="SVGID_6_" gradientUnits="userSpaceOnUse" x1="130.1909" y1="293.233" x2="202.753" y2="293.233" gradientTransform="matrix(0.9715 -0.2372 -0.2372 -0.9715 120.1157 765.0744)">
		<stop  offset="0" style="stop-color:#42210B"/>
		<stop  offset="0.5" style="stop-color:#A67C52"/>
		<stop  offset="1" style="stop-color:#42210B"/>
	</linearGradient>
	<path class="st5" d="M243.5,415.6c-11.2,11.3-51.7,70.8-64.7,40.2C169.4,433.7,230.5,415.5,243.5,415.6
		C233.8,425.4,243.8,415.6,243.5,415.6z"/>
	
		<linearGradient id="SVGID_7_" gradientUnits="userSpaceOnUse" x1="237.3689" y1="284.2583" x2="293.8255" y2="284.2583" gradientTransform="matrix(0.7955 -0.606 -0.606 -0.7955 199.8161 845.5165)">
		<stop  offset="0" style="stop-color:#42210B"/>
		<stop  offset="0.5" style="stop-color:#A67C52"/>
		<stop  offset="1" style="stop-color:#42210B"/>
	</linearGradient>
	<path class="st6" d="M253.8,431.5c-2.7,6.8-23.8,74.6-35,45.8C212.9,462.2,241.7,436.6,253.8,431.5
		C250,441.4,254,431.4,253.8,431.5z"/>
	
		<linearGradient id="SVGID_8_" gradientUnits="userSpaceOnUse" x1="465.8" y1="528.3158" x2="465.8" y2="203.7166" gradientTransform="matrix(1 0 0 -1 0 702)">
		<stop  offset="0" style="stop-color:#C69C6D"/>
		<stop  offset="0.1074" style="stop-color:#B48C60"/>
		<stop  offset="0.8095" style="stop-color:#3A1A0B"/>
		<stop  offset="1" style="stop-color:#603E22"/>
	</linearGradient>
	<circle class="st7" cx="465.8" cy="336.9" r="167.8"/>
	
		<linearGradient id="SVGID_9_" gradientUnits="userSpaceOnUse" x1="63.219" y1="361.5" x2="866.1361" y2="361.5" gradientTransform="matrix(1 0 0 -1 0 702)">
		<stop  offset="0.2" style="stop-color:#603813"/>
		<stop  offset="0.5" style="stop-color:#C69C6D"/>
		<stop  offset="0.8" style="stop-color:#603813"/>
	</linearGradient>
	<circle class="st8" cx="465.8" cy="340.5" r="145.7"/>
	
		<ellipse transform="matrix(0.9996 -2.829306e-02 2.829306e-02 0.9996 -9.2097 13.3119)" class="st9" cx="465.8" cy="332.1" rx="145.7" ry="145.7"/>
	
		<radialGradient id="SVGID_10_" cx="358.3447" cy="361.9285" r="154.7816" gradientTransform="matrix(-1 -1.907063e-03 -2.448196e-03 1.2837 822.4918 -219.324)" gradientUnits="userSpaceOnUse">
		<stop  offset="0.4894" style="stop-color:#C69C6D"/>
		<stop  offset="1" style="stop-color:#9C7348"/>
	</radialGradient>
	<circle class="st10" cx="465.8" cy="335.7" r="142.9"/>
	<g>
		<path class="st11" d="M412,335.5c0,5.8-4.7,10.5-10.5,10.5l0,0c-5.8,0-10.5-4.7-10.5-10.5v-43c0-5.8,4.7-10.5,10.5-10.5l0,0
			c5.8,0,10.5,4.7,10.5,10.5V335.5z"/>
		<path class="st11" d="M498,385.5c0,5.8-4.7,10.5-10.5,10.5l0,0c-5.8,0-10.5-4.7-10.5-10.5v-93c0-5.8,4.7-10.5,10.5-10.5l0,0
			c5.8,0,10.5,4.7,10.5,10.5V385.5z"/>
		<path class="st11" d="M455,300.5c0,5.8-4.7,10.5-10.5,10.5l0,0c-5.8,0-10.5-4.7-10.5-10.5v-8c0-5.8,4.7-10.5,10.5-10.5l0,0
			c5.8,0,10.5,4.7,10.5,10.5V300.5z"/>
		<path class="st11" d="M455,385.5c0,5.8-4.7,10.5-10.5,10.5l0,0c-5.8,0-10.5-4.7-10.5-10.5v-43c0-5.8,4.7-10.5,10.5-10.5l0,0
			c5.8,0,10.5,4.7,10.5,10.5V385.5z"/>
		<path class="st11" d="M540,335.5c0,5.8-4.7,10.5-10.5,10.5l0,0c-5.8,0-10.5-4.7-10.5-10.5v-43c0-5.8,4.7-10.5,10.5-10.5l0,0
			c5.8,0,10.5,4.7,10.5,10.5V335.5z"/>
		<path class="st11" d="M412,386.5c0,5.8-4.7,10.5-10.5,10.5l0,0c-5.8,0-10.5-4.7-10.5-10.5v-8c0-5.8,4.7-10.5,10.5-10.5l0,0
			c5.8,0,10.5,4.7,10.5,10.5V386.5z"/>
		<path class="st11" d="M540,386.5c0,5.8-4.7,10.5-10.5,10.5l0,0c-5.8,0-10.5-4.7-10.5-10.5v-8c0-5.8,4.7-10.5,10.5-10.5l0,0
			c5.8,0,10.5,4.7,10.5,10.5V386.5z"/>
	</g>
	
		<radialGradient id="SVGID_11_" cx="465.7495" cy="318.3" r="197.3311" gradientTransform="matrix(1 0 0 -1 0 702)" gradientUnits="userSpaceOnUse">
		<stop  offset="0.4894" style="stop-color:#C69C6D"/>
		<stop  offset="1" style="stop-color:#8C6239"/>
	</radialGradient>
	<path class="st12" d="M634.4,222.6c25.2,34.3,38.6,75.3,38.2,118.2c-1,110-93.6,198.8-206.7,198.8c-0.7,0-1.4,0-2.1,0
		c-114-1.1-206-92-204.9-202.7c0.4-41.6,13.7-81.2,38.1-114.4c-3.8-2.9-7.5-5.9-11.1-9c-26.4,35.7-40.9,78.3-41.3,123.2
		c-1.1,118.6,97.2,216,219.1,217.2c0.7,0,1.5,0,2.2,0c120.9,0,219.8-95.1,221-213c0.4-46.3-14.1-90.4-41.4-127.3
		C641.9,216.7,638.2,219.7,634.4,222.6z"/>
	
		<linearGradient id="SVGID_12_" gradientUnits="userSpaceOnUse" x1="253.9905" y1="319.75" x2="677.908" y2="319.75" gradientTransform="matrix(1 0 0 -1 0 702)">
		<stop  offset="0.2" style="stop-color:#603813"/>
		<stop  offset="0.5" style="stop-color:#C69C6D"/>
		<stop  offset="0.8" style="stop-color:#603813"/>
	</linearGradient>
	<path class="st13" d="M627.1,228.1c23.3,31.8,36.8,70.7,36.4,112.6c-1,105.2-89.4,190-197.5,190c-0.7,0-1.3,0-2,0
		c-109-1-196.8-87.9-195.8-193.7c0.4-40.6,13.8-78.2,36.4-109c-3.9-2.8-7.7-5.6-11.4-8.6c-24.3,33.2-38.8,73.7-39.2,117.5
		c-1.1,113.7,93.1,207,210,208.2c0.7,0,1.4,0,2.1,0c115.9,0,210.7-91.2,211.8-204.1c0.4-45.2-14.2-87.1-39.3-121.4
		C634.7,222.4,630.9,225.3,627.1,228.1z"/>
	<g>
		
			<radialGradient id="SVGID_13_" cx="528.4297" cy="328.8472" r="14.8676" gradientTransform="matrix(-0.9995 3.258330e-02 3.176285e-02 0.9743 810.5233 -126.8274)" gradientUnits="userSpaceOnUse">
			<stop  offset="0.4894" style="stop-color:#C69C6D"/>
			<stop  offset="1" style="stop-color:#8C6239"/>
		</radialGradient>
		<circle class="st14" cx="293.1" cy="215.5" r="17.8"/>
		
			<radialGradient id="SVGID_14_" cx="544.7499" cy="348.1495" r="11.1994" gradientTransform="matrix(-0.9995 3.258330e-02 3.176285e-02 0.9743 810.4542 -126.4092)" gradientUnits="userSpaceOnUse">
			<stop  offset="0.4894" style="stop-color:#C69C6D"/>
			<stop  offset="1" style="stop-color:#8C6239"/>
		</radialGradient>
		<circle class="st15" cx="277.3" cy="234.1" r="13.4"/>
		
			<radialGradient id="SVGID_15_" cx="555.3984" cy="366.8394" r="7.2928" gradientTransform="matrix(-0.9995 3.258330e-02 3.176285e-02 0.9743 810.3879 -125.982)" gradientUnits="userSpaceOnUse">
			<stop  offset="0.4894" style="stop-color:#C69C6D"/>
			<stop  offset="1" style="stop-color:#8C6239"/>
		</radialGradient>
		<circle class="st16" cx="267.1" cy="251.8" r="8.7"/>
	</g>
	<g>
		
			<radialGradient id="SVGID_16_" cx="855.927" cy="319.3311" r="14.8676" gradientTransform="matrix(0.9995 3.258330e-02 -3.176285e-02 0.9743 -206.748 -128.2267)" gradientUnits="userSpaceOnUse">
			<stop  offset="0.4894" style="stop-color:#C69C6D"/>
			<stop  offset="1" style="stop-color:#8C6239"/>
		</radialGradient>
		<circle class="st17" cx="638.3" cy="215.5" r="17.8"/>
		
			<radialGradient id="SVGID_17_" cx="872.2474" cy="338.6334" r="11.1994" gradientTransform="matrix(0.9995 3.258330e-02 -3.176285e-02 0.9743 -206.6789 -127.8086)" gradientUnits="userSpaceOnUse">
			<stop  offset="0.4894" style="stop-color:#C69C6D"/>
			<stop  offset="1" style="stop-color:#8C6239"/>
		</radialGradient>
		<circle class="st18" cx="654.1" cy="234.1" r="13.4"/>
		
			<radialGradient id="SVGID_18_" cx="882.8958" cy="357.3233" r="7.2928" gradientTransform="matrix(0.9995 3.258330e-02 -3.176285e-02 0.9743 -206.6126 -127.3813)" gradientUnits="userSpaceOnUse">
			<stop  offset="0.4894" style="stop-color:#C69C6D"/>
			<stop  offset="1" style="stop-color:#8C6239"/>
		</radialGradient>
		<circle class="st19" cx="664.3" cy="251.8" r="8.7"/>
	</g>
	
		<linearGradient id="SVGID_19_" gradientUnits="userSpaceOnUse" x1="229.2" y1="10" x2="229.2" y2="10" gradientTransform="matrix(1 0 0 -1 0 702)">
		<stop  offset="0" style="stop-color:#42210B"/>
		<stop  offset="0.5" style="stop-color:#A67C52"/>
		<stop  offset="1" style="stop-color:#42210B"/>
	</linearGradient>
	<path class="st20" d="M229.2,692"/>
	<g>
		
			<linearGradient id="SVGID_20_" gradientUnits="userSpaceOnUse" x1="-531.2729" y1="531.8617" x2="-346.8738" y2="531.8617" gradientTransform="matrix(-0.998 6.330603e-02 -6.330603e-02 -0.998 365.0471 700.4608)">
			<stop  offset="0.2" style="stop-color:#603813"/>
			<stop  offset="0.5" style="stop-color:#C69C6D"/>
			<stop  offset="0.8" style="stop-color:#603813"/>
		</linearGradient>
		<path class="st21" d="M852.5,9.3c-4.8,14-9.1,26.5-13.5,39c-5.8,16.4-15.3,30.2-28.1,41.8c-20.3,18.4-40.8,36.7-61,55.3
			c-10.4,9.6-20.8,19.3-30.6,29.6c-4.6,4.8-8.9,10.4-11.6,16.4c-11.3,26-15.9,53.7-22.1,83.1c2.2-2,3.1-2.5,3.6-3.3
			c14.6-22.3,34.6-38.6,57.4-52c30-17.6,54.7-41.8,78.1-67c19.4-20.8,30.1-46,30.8-74.5c0.5-20.9-0.9-41.8-1.6-62.7
			C853.9,13.5,853.2,12,852.5,9.3z"/>
		
			<linearGradient id="SVGID_21_" gradientUnits="userSpaceOnUse" x1="-577.5623" y1="460.2951" x2="-367.6244" y2="460.2951" gradientTransform="matrix(-0.9987 -5.112930e-02 5.112930e-02 -0.9987 311.5865 729.2833)">
			<stop  offset="0.2" style="stop-color:#603813"/>
			<stop  offset="0.5" style="stop-color:#C69C6D"/>
			<stop  offset="0.8" style="stop-color:#603813"/>
		</linearGradient>
		<path class="st22" d="M699.2,348.3c1.3-0.1,2,0.1,2.4-0.2c16.5-9.3,34.6-9.7,52.9-11.2c26.8-2.2,53.5-6.3,80.1-10.3
			c21.4-3.2,38-14.8,51.4-31.6c13.2-16.5,22.4-34.8,29-55.8c-1.6,0.8-2.5,1-3.1,1.6c-32.7,30.3-73.4,43-115.7,51.9
			c-6.2,1.3-12.4,2.6-18.7,3.5c-23.9,3.6-44.3,14.4-62.4,30C708.2,332.3,702.7,339.3,699.2,348.3z"/>
		
			<linearGradient id="SVGID_22_" gradientUnits="userSpaceOnUse" x1="-578.6941" y1="454.9836" x2="-352.8814" y2="454.9836" gradientTransform="matrix(-0.998 6.330603e-02 -6.330603e-02 -0.998 365.0471 700.4608)">
			<stop  offset="0.2" style="stop-color:#603813"/>
			<stop  offset="0.5" style="stop-color:#C69C6D"/>
			<stop  offset="0.8" style="stop-color:#603813"/>
		</linearGradient>
		<path class="st23" d="M908.1,120.2c-6.8,9.3-12.5,16.9-18.1,24.6c-22,30.8-50.4,53.8-85.1,68.9c-25.7,11.2-49.3,25.9-72.3,41.7
			c-20.3,14-30.9,34-38.5,58.2c4.5-3.9,7.8-6.9,11.2-9.7c17.7-14.4,38.6-21.8,60.2-27.9c27.9-7.8,56-15,82.2-28.3
			c24.2-12.3,40.3-30.6,48.5-56.4C903.4,168.8,907.3,145.8,908.1,120.2z"/>
		
			<linearGradient id="SVGID_23_" gradientUnits="userSpaceOnUse" x1="-571.2027" y1="433.8595" x2="-367.6702" y2="433.8595" gradientTransform="matrix(-0.9949 -0.1012 0.1012 -0.9949 290.6944 739.1677)">
			<stop  offset="0.2" style="stop-color:#603813"/>
			<stop  offset="0.5" style="stop-color:#C69C6D"/>
			<stop  offset="0.8" style="stop-color:#603813"/>
		</linearGradient>
		<path class="st24" d="M697.5,373.2c28.1-1.5,53.6,5.5,79.3,9.9c19.2,3.3,38.3,3.3,57.5,1.1c32-3.7,54.4-22.1,71.5-48.1
			c0.2-0.2,0-0.7,0-1.5c-0.8,0.2-1.5,0.3-2.1,0.6c-24.3,11.3-50,14.9-76.5,14.3c-29.4-0.7-58.7,1.1-87.6,6.5
			C726.9,358.2,707.3,366.4,697.5,373.2z"/>
		
			<linearGradient id="SVGID_24_" gradientUnits="userSpaceOnUse" x1="-475.3119" y1="389.2691" x2="-363.8534" y2="389.2691" gradientTransform="matrix(-0.9914 -0.1309 0.1309 -0.9914 280.2211 745.8336)">
			<stop  offset="0" style="stop-color:#42210B"/>
			<stop  offset="0.5" style="stop-color:#A67C52"/>
			<stop  offset="1" style="stop-color:#42210B"/>
		</linearGradient>
		<path class="st25" d="M693.2,397.7c28.4,2.6,49.6,20.2,72.8,33.7c4.1,2.4,8.2,5,12.6,6.6c9.6,3.5,18.9-0.7,22.2-9.2
			c4-10.6,0.8-20.6-9.1-24.3c-8.3-3.1-17.1-6-25.8-6.6c-22.9-1.4-46-1.6-69-2.2c-1.1,0-2.3,0.3-3.4,0.4
			C693.4,396.7,693.3,397.2,693.2,397.7z"/>
		
			<linearGradient id="SVGID_25_" gradientUnits="userSpaceOnUse" x1="-434.0518" y1="429.9986" x2="-360.6304" y2="429.9986" gradientTransform="matrix(-0.9715 -0.2372 0.2372 -0.9715 234.553 765.0744)">
			<stop  offset="0" style="stop-color:#42210B"/>
			<stop  offset="0.5" style="stop-color:#A67C52"/>
			<stop  offset="1" style="stop-color:#42210B"/>
		</linearGradient>
		<path class="st26" d="M691.2,415.6c9.7,9.8,19.7,19.6,29.3,29.8c3.7,3.9,6.5,8.7,9.5,13.2c5.6,8.4,19.3,9.3,25.3,1.2
			c1.5-2,2.2-5.9,1.2-8c-2.3-4.9-5-10.5-9.1-13.6c-16.3-12.5-34.9-19.9-55.3-22.5C691.5,415.5,690.9,415.6,691.2,415.6z"/>
		
			<linearGradient id="SVGID_26_" gradientUnits="userSpaceOnUse" x1="-220.3128" y1="637.7053" x2="-163.6108" y2="637.7053" gradientTransform="matrix(-0.7955 -0.606 0.606 -0.7955 154.8526 845.5165)">
			<stop  offset="0" style="stop-color:#42210B"/>
			<stop  offset="0.5" style="stop-color:#A67C52"/>
			<stop  offset="1" style="stop-color:#42210B"/>
		</linearGradient>
		<path class="st27" d="M679.8,426.5c3.8,9.9,7.9,19.9,11.6,30.1c1.4,3.9,1.9,8.2,2.6,12.3c1.3,7.7,10.8,12.6,17.5,8.6
			c1.6-0.9,3.4-3.5,3.3-5.3c-0.1-4.2-0.3-8.9-2.2-12.5c-7.7-13.9-18.6-24.8-32.2-33C680.1,426.5,679.6,426.4,679.8,426.5z"/>
	</g>
	
		<radialGradient id="SVGID_27_" cx="467.5" cy="28.261" r="212.6511" gradientTransform="matrix(1 0 0 -1.1561 0 741.9725)" gradientUnits="userSpaceOnUse">
		<stop  offset="0.4894" style="stop-color:#C69C6D"/>
		<stop  offset="1" style="stop-color:#8C6239"/>
	</radialGradient>
	<path class="st28" d="M467.5,673.8c-165.2,0-298.5,34.8-298.5,77.8v-6.8c0-43,133.3-77.8,298.5-77.8S766,701.8,766,744.8v6.8
		C766,708.6,632.7,673.8,467.5,673.8z"/>
	
		<radialGradient id="SVGID_28_" cx="457.5" cy="42.0141" r="212.6511" gradientTransform="matrix(-1 0 0 1.1561 925 484.8275)" gradientUnits="userSpaceOnUse">
		<stop  offset="0.4894" style="stop-color:#C69C6D"/>
		<stop  offset="1" style="stop-color:#8C6239"/>
	</radialGradient>
	<path class="st29" d="M467.5,568.9c165.2,0,298.5-34.8,298.5-77.8v6.8c0,43-133.3,77.8-298.5,77.8S169,540.9,169,497.9v-6.8
		C169,534.1,302.3,568.9,467.5,568.9z"/>
	<g>
		<g>
			<g>
				
					<radialGradient id="SVGID_29_" cx="216.167" cy="51.7034" r="506.8616" gradientTransform="matrix(1 0 0 -1 0 702)" gradientUnits="userSpaceOnUse">
					<stop  offset="0" style="stop-color:#8C6239"/>
					<stop  offset="0.4894" style="stop-color:#C69C6D"/>
					<stop  offset="1" style="stop-color:#8C6239"/>
				</radialGradient>
				<path class="st30" d="M309.1,616.3c0,0.3,0,0.6,0,1c0.2,0.1,0.3,0.2,0.4,0.1c4.2-1.4,7.6-3.8,9.3-7.9c1-2.3-0.7-4.4-3.5-4.4
					c-3.2,0-6,1.1-8.7,2.6c-7.9,4.3-13.9,10.6-19,17.6c-3.5,4.8-6.4,9.9-8,15.6c-0.6,2.1-1,4.2-1.1,6.3c-0.1,6,3,8.2,8.8,6.8
					c3-0.7,5.9-2.1,8.6-3.5c6.3-3.4,11.8-7.8,17-12.7c0.7-0.6,1.3-1.5,1.7-2.3c2.2-5.1,5.9-8.9,10.9-11.3c1.6-0.8,3.4-1.2,5.2-1.6
					c0.7-0.2,1.5,0.1,2.5,0.2c-1.8,0.7-3.4,1.1-4.8,1.8c-3.5,2-5.9,5.1-7.8,8.5c-1.1,1.9-1.9,4-2.8,6c-0.2,0.5-0.4,1-0.3,1.5
					c0,0.7,0.3,1.3,0.4,2c0.7-0.2,1.7-0.1,2.1-0.5c1.8-1.7,3.5-3.5,5-5.4c1.5-2,2.7-4.1,3.9-6.3c0.3-0.4,0.3-1.2,0.1-1.7
					c-0.5-1.3-0.1-2.8,1.2-3.5c0.9-0.5,1.6-0.1,2.2,0.6c1.3,1.4,3,1.8,4.8,1.1c0.7-0.3,1.3-0.8,1.8-1.4c0.8-1,1.4-2.1,2.2-3.2
					c1.2-1.6,2-1.7,3.6-0.5c0.5,0.4,0.8,0.9,1.2,1.3c-3.4,3-4.8,7-6.9,10.6c0.2,0.1,0.3,0.2,0.5,0.4c0.8-1.1,1.5-2.2,2.4-3.2
					c2.6-2.9,5.2-5.7,7.8-8.5c0.4-0.4,0.8-0.7,1.2-1c1-0.8,1.9-0.8,2.8,0.1c0.9,0.8,1.1,1.6,0.4,2.8c-1.6,2.7-3,5.6-4.5,8.4
					c-0.3,0.5-0.4,1.2-0.3,1.9c0.3-0.4,0.6-0.8,1-1.2c3.5-4.7,7-9.5,11.6-13.3c1.6-1.4,2.4-1.2,3.6,0.4c0.6,0.8,0.4,1.5-0.1,2.3
					c-2.2,3.7-4.3,7.4-6.3,11.2c-0.3,0.6-0.5,1.3-0.7,2c0.1,0.1,0.2,0.2,0.3,0.2c0.4-0.2,0.9-0.3,1.3-0.6c4.2-3.4,8.1-7,10.7-11.9
					c0.9-1.6,2-3.1,3.1-4.6c1.3-1.8,2.5-1.8,4-0.2c0.4,0.3,0.6,0.8,0.7,1c-1.1,1.3-2.2,2.4-3,3.6c-1.5,2.2-2.8,4.6-4.1,6.9
					c0.1,0.1,0.2,0.1,0.3,0.2c0.9-1,1.7-2,2.6-2.9c2.7-2.8,5.4-5.6,8.2-8.3c0.4-0.4,0.8-0.6,1.2-0.9c0.9-0.7,1.8-0.7,2.7,0.1
					c1.1,1,1.1,1.6,0.4,2.9c-1.6,2.7-3.2,5.5-4.7,8.3c-0.3,0.5-0.4,1.2-0.4,1.8c0.3-0.4,0.7-0.8,1-1.2c3.6-4.1,7.3-8.2,11.1-12.2
					c0.3-0.3,0.7-0.5,1-0.8c1.5-1.1,2.2-1,3.3,0.4c0.6,0.8,0.6,1.5,0.1,2.4c-2.2,3.5-4.4,7-6.5,10.5c-0.5,0.8-0.7,1.7-1,2.5
					c0.1,0.1,0.2,0.2,0.3,0.3c0.5-0.2,1-0.4,1.4-0.7c3.5-2.5,6.6-5.5,9.3-8.9c3.1-3.9,7-6.9,11.9-8.4c0.7-0.2,1.6-0.3,2.3-0.1
					c2.6,0.8,3.2,2.1,1.5,4.2c-3.3,4.3-7.6,7.2-12.8,8.7c-1.2,0.4-2.9,3-2.5,4.1c0.1,0.3,0.6,0.6,0.9,0.6c0.9-0.1,1.8-0.2,2.6-0.6
					c5.2-2.5,9.5-6.2,13.7-10.1c1.7-1.6,2.8-3.7,4.2-5.6c0.2-0.2,0.3-0.4,0.5-0.6c1.6-1.9,3.5-1.7,4.6,0.4c0.1,0.3,0,0.9-0.2,1
					c-2.1,1.7-4.3,4.3-5.8,7.5c0.8-0.8,1.6-1.6,2.4-2.3c3.2-2.6,6.4-5.3,9.7-7.8c1.6-1.2,2.4-1,3.7,0.4c0.6,0.7,0.6,1.2-0.1,1.8
					c-1.5,1.6-2.9,3.3-4.3,5c-0.6,0.7-0.9,1.6-1.4,2.3c0.1,0.1,0.2,0.2,0.2,0.3c0.5-0.1,1.2-0.2,1.6-0.5c2.7-1.9,5.3-3.7,7.9-5.7
					c2.7-2.1,5.6-4.1,9.1-4.8c0.7-0.2,1.6-0.3,2.3-0.1c1.9,0.7,3.2,2.2,1.4,4.3c-0.8,0.8-1.6,1.6-2.4,2.4c-0.1-0.1-0.2-0.2-0.3-0.2
					c0.6-1.4,1.2-2.7,1.9-4.2c-1.8-0.2-3,0.5-4.1,1.2c-4.4,3.1-8.1,6.8-10.3,11.6c-0.3,0.6-0.2,1.3-0.2,2c0.7,0,1.4,0.3,2,0.1
					c2-0.8,4.1-1.7,6-2.8c2.4-1.5,4.8-3.2,6.9-5c1.6-1.3,2.7-3.1,4-4.7c0.8-1,1.6-2,2.5-2.9c1.3-1.3,1.8-1.3,3.2-0.1
					c0.6,0.5,1,1.2,1.3,1.5c-1.3,1.1-2.6,2-3.4,3.1c-2.1,3-4,6.1-5.9,9.2c-0.1,0.2-0.2,0.5-0.4,1.2c0.9-0.5,1.5-0.7,2-1.1
					c2.8-2.3,5.7-4.5,8.3-6.9c3.7-3.4,7.6-6.6,12.6-8c2.2-0.7,4.5-1.1,6.8-0.2c1.5,0.6,2.2,1.8,1.8,3.5c-0.1-0.3-0.3-0.5-0.3-0.7
					c-0.3-1.1-1.1-1.9-2.3-1.7c-1.6,0.2-3.3,0.6-4.7,1.3c-5.8,2.8-9.9,7.3-13,12.6c-0.1,0.2-0.1,0.5-0.2,0.8
					c0.1,0.1,0.2,0.2,0.3,0.3c1.9-1.2,3.8-2.3,5.6-3.6c3.2-2.4,6.4-5,9.6-7.5c1.7-1.3,2.2-1.2,3.3,0.6c0.4,0.7,0.3,1.1-0.2,1.8
					c-1.9,2.3-3.7,4.7-5.5,7.1c-0.3,0.4-0.4,0.9-0.7,1.7c0.8-0.3,1.3-0.4,1.7-0.7c3.2-2.4,6.6-4.7,9.4-7.4c2-2,3.3-4.7,5-7
					c3.6-4.7,7.3-9.4,11.2-14c0.9-1.1,2.1-2,3.4-2.8c1.6-1,3.8-0.2,4.7,1.4c-4.6,2.4-7.2,6.5-10.3,10.2c-4.7,5.7-9,11.8-12.5,18.2
					c-0.3,0.5-0.5,1.1-0.8,1.7c0,0.1,0,0.2,0,0.5c0.4-0.1,0.7-0.1,1-0.3c2.7-2,5.5-4,8.2-6.1c1.3-1,2.6-2.1,3.9-3.2
					c0.1,0.1,0.2,0.2,0.2,0.3c-0.5,0.5-1,1.1-1.5,1.6c-3.7,3.2-7.3,6.4-11,9.5c-1.9,1.6-3.2,1.3-4.5-0.6c-0.6-0.8-0.6-1.7-0.2-2.6
					c0.3-0.6,0.6-1.2,0.9-1.8s0.5-1.1,0.5-1.9c-0.7,0.6-1.3,1.2-2,1.8c-2.3,1.8-4.6,3.7-7,5.3c-1.5,1.1-3,0.6-3.9-1
					c-0.3-0.5-0.4-1.3-0.2-1.8c0.6-1.7,1.3-3.3,2-5.1c-0.3,0.2-0.6,0.4-0.9,0.6c-3,2.2-6,4.5-9,6.7c-0.9,0.6-1.9,1.5-3.1,0.6
					c-1.3-0.9-2-2.7-1.6-4.2c0.1-0.4,0.2-0.8,0.1-1.4c-1.2,1-2.3,2.1-3.5,3c-1.1,0.9-2.3,1.7-3.5,2.5c-1,0.6-2,0.9-3.1,0.1
					c-1.1-0.8-1.4-1.8-0.9-3c0.6-1.4,1.2-2.8,1.6-4.4c-0.5,0.3-1,0.7-1.4,1c-3.1,2.5-6.2,4.9-9.9,6.4c-1,0.4-2.3,0.7-3.4,0.7
					c-2.7-0.2-4.1-2.4-3.3-5c0.5-1.6,1.3-3.1,2-4.7c-1.3,0.8-2.6,1.6-3.9,2.3c-1.7,0.9-2.9,0.7-4-0.4c-0.6-0.6-0.9-1.3-0.5-2.2
					c0.5-1.2,1-2.4,1.6-3.8c-0.4,0.1-0.7,0.2-1,0.3c-4.8,3.2-8.6,7.3-11.5,12.1c-0.4,0.7-0.7,1.5-0.8,2.2c-0.2,0.7-0.5,0.8-1.1,0.5
					c-1.3-0.5-2.1-2-1.7-3.3c0.5-1.6,1.3-3.2,2-4.8c0.2-0.4,0.3-0.7,0.5-1.1c-0.1-0.1-0.2-0.1-0.3-0.2c-0.5,0.4-1,0.9-1.5,1.3
					c-3.4,3-6.8,5.9-11,7.7c-1.3,0.5-2.7,1.1-4.2,0.5c-2-0.7-2.9-2.3-2.4-4.4c0.1-0.4,0.2-0.7,0-1.3c-0.4,0.4-0.9,0.8-1.3,1.2
					c-1.8,1.6-3.6,3.2-5.5,4.8c-0.9,0.7-1.9,1-2.9,0.3c-1.3-0.9-1.8-2-1.4-3.4c0.9-3.4,2.7-6.4,4.6-9.4c0.2-0.3,0.4-0.7,0.6-1
					c0-0.1,0-0.1-0.1-0.4c-1.1,1.1-2.3,2-3.2,3c-2.7,3.1-5.2,6.3-7.8,9.5c-0.6,0.7-1.1,1.9-2.4,1.3c-1.3-0.6-2-2-1.4-3.4
					c1.2-2.9,2.7-5.7,4-8.6c0.2-0.4,0.5-0.8,0.8-1.2c-3.6,1.6-13.6,13.6-13.7,16.5c-1.7,0.2-3.3-1.5-2.9-3.3
					c0.3-1.3,0.9-2.6,1.1-4.1c-0.7,0.8-1.4,1.6-2.1,2.3c-1.7,1.6-3.4,3.3-5.2,4.9c-0.9,0.8-1.9,1.2-3,0.4c-1.4-0.9-1.8-1.9-1.5-3.4
					c0.8-3.4,2.5-6.4,4.2-9.5c0.2-0.3,0.4-0.7,0.5-1c0-0.1,0-0.1-0.2-0.5c-1.6,1.6-3.1,3.1-4.4,4.7c-2.1,2.7-4.1,5.4-6.1,8.2
					c-0.6,0.8-1,1.9-2.4,1.4c-1.3-0.5-2.1-1.9-1.6-3.2c1.2-3,2.5-5.9,3.8-8.8c0.2-0.4,0.5-0.8,0.7-1.3c-3.6,1.8-13.1,14-13.2,16.9
					c-1.8,0.3-3.5-1.5-2.9-3.3c0.6-2.2,1.5-4.3,2.4-6.4c0.5-1.2,1.1-2.4,1.8-3.8c-1.4,0.2-2.7,0.3-3.9,0.5c-0.2,0-0.4,0.5-0.4,0.7
					c-1.4,5.4-5,9-9.4,12.1c-1.4,1-3.2,1.8-4.9,2.2c-2.4,0.7-4.5-1-4.9-3.4c-0.1-0.4-0.1-0.9-0.2-1.6c-1,0.9-1.8,1.6-2.5,2.3
					c-4.4,4.3-9.1,8.2-14.3,11.6c-3.7,2.4-7.4,4.5-11.9,5c-7.3,0.8-11-3.2-11.1-10c0-5.8,2.1-11,4.9-15.9
					c4.4-8.1,12.2-16.4,19.9-21.4c4.3-3,8.9-5.4,14.2-6.2c1.4-0.2,2.9-0.1,4.2,0.2c3.5,0.7,4.6,3.8,3.7,6.6
					c-1.5,4.8-4.8,8.3-9.5,10.6c-1,0.5-2.1,0.7-3-0.2c-1-1-1.2-2.3-0.6-3.5c0.3-0.5,0.7-1,1.1-1.5
					C308.9,616.2,309,616.3,309.1,616.3z M405.1,626.7c3.3-0.7,11-7.6,11.3-10C413.7,616.9,405.9,623.7,405.1,626.7z"/>
				
					<radialGradient id="SVGID_30_" cx="211.8701" cy="51.7621" r="510.8775" gradientTransform="matrix(1 0 0 -1 0 702)" gradientUnits="userSpaceOnUse">
					<stop  offset="0" style="stop-color:#8C6239"/>
					<stop  offset="0.4894" style="stop-color:#C69C6D"/>
					<stop  offset="1" style="stop-color:#8C6239"/>
				</radialGradient>
				<path class="st31" d="M619.7,641.3c0.9-0.4,1.9-0.6,2.8-1.1c2.9-1.6,5.7-3.3,8.5-5c0.3-0.2,0.7-0.6,0.7-1
					c-0.1-1.5,0.6-2.5,1.7-3.3c3.3-2.5,7-3.6,11.2-3.2c1.8,0.2,2.9,2.9,1.6,4.2c-1.1,1.2-2.6,2.1-4.4,2.2c1.2-1.1,2.4-2.1,3.7-3.2
					c-0.1-0.2-0.1-0.3-0.2-0.5c-0.6,0.1-1.2,0.1-1.8,0.2c-2.9,0.6-5.5,1.7-8,3.2c-0.5,0.3-1,0.7-1.1,1.1c-0.1,0.6,0,1.3,0.2,1.8
					c0.3,0.6,0.8,0.6,1.5,0.4c3.7-0.9,7.4-1.5,11.1-2.5c1.5-0.4,2.9-1.3,4.3-1.9c2.4-1.1,5-1.8,7.7-1.8c0.8,0,1.8,0.3,2.5,0.7
					c1.8,1.2,1.9,2.5,0.3,3.9c-2.5,2.4-5.6,3.7-8.9,4.7c-2,0.6-4.1,0.8-6.2,1c-1.1,0.1-3.2,2.5-3.1,3.5c0,0.3,0.4,0.7,0.7,0.8
					c0.9,0.1,1.8,0.3,2.7,0.1c5.3-1.2,10.1-3.7,15-6.1c0.5-0.3,1.1-0.5,1.6-0.8c0.1,0,0.2,0,0.5,0.2c-1.4,0.9-2.7,1.8-4.2,2.5
					c-3.9,1.8-7.7,3.7-11.7,5.3c-1.6,0.6-3.5,0.8-5.3,0.8c-2.7,0-4.4-3.1-2.9-5.5c1.2-1.8,2.7-3.4,4.2-5.1c0.3-0.3,0.6-0.6,1-0.9
					c-0.1-0.2-0.1-0.3-0.2-0.5c-3.2,0.7-6.3,1.4-9.4,2.1c0,0.4,0,0.5,0,0.6c1.3,3.1,1,4-2.2,5.4c-2.3,1.1-4.8,1.6-7.4,1.4
					c-1-0.1-1.8-0.3-2.1-1.3s0.1-1.8,1-2.2c2.5-1.2,5-2.4,7.5-3.5c1.3-0.6,1.4-0.6,0.5-1.7c-0.3-0.4-0.7-0.8-1-1.2
					c-2,1.3-3.8,2.7-5.8,3.9c-2.2,1.4-4.6,2.6-6.9,3.9c-1,0.5-2,0.7-3-0.2c-1-1.1-1.4-2.4-0.7-3.6c1.5-2.2,3.2-4.4,5-6.5
					c1.1-1.3,2.4-2.4,3.6-3.5c-0.1-0.1-0.1-0.2-0.2-0.3c-0.8,0.3-1.6,0.6-2.3,0.9c-5.1,2.5-10,5.3-14.3,9c-1.1,0.9-1.9,2.2-2.9,3.4
					c-1.5-0.5-2.4-2.5-1.4-4.1c1.1-1.7,2.4-3.4,3.6-5c0.3-0.4,0.6-0.8,0.8-1.4c-0.4,0.2-0.8,0.4-1.2,0.7c-3.9,2.6-7.9,5-12.3,6.5
					c-1.5,0.5-3.2,0.8-4.9,0.9c-2.6,0.1-4.4-2.7-3.3-5.2c0.3-0.7,0.6-1.3,1.1-2.3c-2.2,1.2-4,2.3-5.9,3.2c-2.4,1.2-4.8,2.3-7.6,2.5
					c-3.4,0.2-5.4-2.5-4-5.6c0.3-0.7,0.7-1.4,1-2.1c-0.1-0.1-0.2-0.1-0.3-0.2c-0.8,0.6-1.6,1.2-2.4,1.8c-2.2,1.5-4.5,3-6.8,4.3
					c-1.6,0.9-2.7,0.6-3.7-0.7c-0.8-1-0.4-2,0-2.9c2.7-5,6.3-9.3,10.8-12.9c0.9-0.7,1.8-0.7,2.5,0.1c0.6,0.7,1.1,1.5,1.5,2
					c-1.4,1-2.8,1.8-3.7,2.8c-2.4,2.8-4.6,5.7-6.8,8.5c-0.2,0.2-0.2,0.5-0.5,1.1c0.9-0.4,1.6-0.6,2.1-0.9c3.5-2.4,7.1-4.7,10.6-7.1
					c3.4-2.3,6.8-4.8,11-5.7c1.1-0.2,2.3-0.4,3.5-0.3c1.4,0,2.2,1,2.7,2.1c0.5,1-0.2,1.9-1,2.5c-0.9,0.7-1.8,1.4-2.8,2.1
					c-0.1-0.1-0.2-0.2-0.3-0.3c0.8-1.2,1.6-2.5,2.4-3.7c-0.1-0.1-0.2-0.2-0.2-0.4c-0.8,0.1-1.6,0.1-2.3,0.3
					c-4.3,1.5-7.6,4.2-10.7,7.3c-1.1,1.1-2,2.4-2.9,3.7c-0.3,0.4-0.5,1.2-0.2,1.6c0.2,0.3,1,0.5,1.6,0.5c3.4-0.2,6.2-1.9,9.2-3.3
					c3.6-1.7,6.6-4.3,9.8-6.5c3.1-2.2,6.6-3.5,10.5-3.8c0.8-0.1,1.7,0.2,2.4,0.6c1.9,1.1,2.1,2.4,0.6,3.9c-2.4,2.5-5.5,4.1-8.8,5.2
					c-2,0.7-4.1,0.9-6.1,1.3c-1,0.2-3,2.6-2.8,3.6c0.1,0.3,0.5,0.8,0.8,0.8c0.9,0.1,1.8,0.2,2.7-0.1c5.2-1.4,9.7-4.3,14.4-6.7
					c2-1.1,3.7-2.5,5.4-4.1c0.9-0.8,1.9-1.6,2.9-2.3c1.3-0.9,1.7-0.9,2.8,0.3c0.4,0.5,0.8,1,1.1,1.6c0.1,0.2,0,0.7-0.2,0.8
					c-1.4,1-2.9,1.9-4.2,3c-1.6,1.4-3,2.9-4.4,4.4c-0.2,0.2-0.4,0.5-0.3,1c1.6-1.1,3.2-2.3,5-3.2c3.8-2.1,7.6-4.2,11.5-6.1
					c1.8-0.8,2.8-0.2,3.4,1.6c0.3,0.9-0.1,1.5-0.8,2.1c-3.1,3.1-6.2,6.3-9.2,9.5c-0.3,0.3-0.4,0.6-0.6,0.9c-0.1,0.1-0.1,0.3-0.1,0.5
					C619.6,641.1,619.6,641.2,619.7,641.3z M606.3,624.5c-2.8-0.3-12.3,5.5-12.8,7.8C596.7,632.2,605.5,626.9,606.3,624.5z
					 M647.9,640.4c3,0.3,12.6-4.9,13.2-7.1C658.2,632.9,648.9,638,647.9,640.4z M626.6,642c0.1,0.2,0.2,0.3,0.3,0.5
					c2.4-0.7,4.9-1.3,6.8-3.1c-0.1-0.1-0.1-0.3-0.2-0.4C631.1,640,628.8,641,626.6,642z"/>
				
					<radialGradient id="SVGID_31_" cx="195.9743" cy="64.9579" r="537.8542" gradientTransform="matrix(1 0 0 -1 0 702)" gradientUnits="userSpaceOnUse">
					<stop  offset="0" style="stop-color:#8C6239"/>
					<stop  offset="0.4894" style="stop-color:#C69C6D"/>
					<stop  offset="1" style="stop-color:#8C6239"/>
				</radialGradient>
				<path class="st32" d="M521.9,612c-1.6,2.4-1.2,4,1.1,6c3.8,3.2,8.3,4.3,13.1,4.5c4.6,0.2,4.6,0,7.7-3.3
					c5.4-5.8,10.7-11.8,17.1-16.8c3-2.3,6.1-4.4,10.1-5c3-0.5,5.7,0.9,6.1,3.2c0.3,1.9-0.4,3.6-1.3,5.2c-1.9,3.2-4.6,5.8-7.7,8
					c-6.7,4.8-14.1,8-22.2,9.8c-0.5,0.1-1,0.3-1.4,0.6c-4.3,4.2-8.8,8.3-13.7,11.8c-0.1,0-0.1,0.1-0.3,0.5
					c6.6-0.7,12.9-0.2,19.2,1.1c6.2,1.2,12.4,2.7,17.7,6.3c-2-0.7-3.9-1.5-6-2c-3.9-1-7.9-1.9-11.9-2.5c-5.4-0.8-10.9-0.8-16.3,0
					c-5.3,0.8-10.5,1.9-15.1,4.7c-1.2,0.7-2.1,1.8-3.4,3c-1-0.4-2-1.4-2.4-2.9s0.5-2.3,1.6-3c2.6-1.8,5.5-2.6,8.5-3.2
					c2.2-0.4,3.8-1.6,5.4-3c3.4-3,6.7-6.2,10.1-9.3c0.2-0.2,0.3-0.4,0.5-0.8c-0.6,0-1.1-0.1-1.6-0.1c-5.7,0-11.2-0.6-16-3.8
					c-1.1-0.7-2.1-1.7-2.8-2.8C516.2,615.3,518.4,612,521.9,612z M547.9,620.7c0.1,0.1,0.1,0.2,0.2,0.3c0.3-0.1,0.7-0.1,1-0.2
					c6-1.7,11.4-4.6,16.3-8.4c3.5-2.8,6.7-5.8,8.6-9.9c0.7-1.4,0.7-2.8-0.1-3.4c-0.7-0.6-2.2-0.5-3.6,0.5c-1.8,1.3-3.6,2.5-5.2,4
					c-4.9,4.6-9.6,9.3-14.3,14C549.9,618.6,548.9,619.6,547.9,620.7z"/>
				
					<radialGradient id="SVGID_32_" cx="210.5571" cy="66.8067" r="515.309" gradientTransform="matrix(1 0 0 -1 0 702)" gradientUnits="userSpaceOnUse">
					<stop  offset="0" style="stop-color:#8C6239"/>
					<stop  offset="0.4894" style="stop-color:#C69C6D"/>
					<stop  offset="1" style="stop-color:#8C6239"/>
				</radialGradient>
				<path class="st33" d="M464.3,611.9c0.6-1.9,1.2-3.5,2.8-4.6c1-0.6,3.5,0.7,3.6,1.8c0,0.2-0.2,0.5-0.4,0.6
					c-1.3,0.9-2.5,1.9-3.8,2.8c-0.4,0.3-1,0.6-1.3,0.4C464.8,612.8,464.6,612.2,464.3,611.9z"/>
				
					<radialGradient id="SVGID_33_" cx="196.0439" cy="62.6438" r="535.6194" gradientTransform="matrix(1 0 0 -1 0 702)" gradientUnits="userSpaceOnUse">
					<stop  offset="0" style="stop-color:#8C6239"/>
					<stop  offset="0.4894" style="stop-color:#C69C6D"/>
					<stop  offset="1" style="stop-color:#8C6239"/>
				</radialGradient>
				<path class="st34" d="M571.2,616.9c0.8-1.8,1.6-3.4,3.3-4.3c1.1-0.6,3.4,0.9,3.4,2.2c0,0.2-0.2,0.5-0.5,0.6
					c-1.3,0.8-2.7,1.6-4.1,2.4c-0.4,0.2-1,0.5-1.3,0.3C571.6,617.9,571.4,617.3,571.2,616.9z"/>
			</g>
		</g>
	</g>
</g>
<g id="Layer_5" class="st35">
</g>
<g id="Layer_3" class="st35">
	<path class="st36" d="M482,616.7c129.5,0,234-23.6,234-52.7v68.9c0,29.1-104.5,52.7-234,52.7S248,662,248,632.9V564
		C248,593.1,352.5,616.7,482,616.7z"/>
	<path class="st37" d="M159,665.7c129.5,0,234-23.6,234-52.7v68.9c0,29.1-104.5,52.7-234,52.7l16-33L159,665.7z"/>
	<path class="st37" d="M802,665.7c-129.5,0-234-23.6-234-52.7v68.9c0,29.1,104.5,52.7,234,52.7l-16-33L802,665.7z"/>
	<path class="st38" d="M312,531.6c0,23.7,76.1,42.9,170,42.9s170-19.2,170-42.9V502H312V531.6z"/>
	<ellipse class="st39" cx="482" cy="500.6" rx="170.1" ry="42.9"/>
	<path class="st36" d="M482,457.7c-57.8,0-108.9,7.3-139.7,18.4c17.3,30.7,73.3,53.1,139.7,53.1s122.3-22.5,139.7-53.1
		C590.9,465,539.8,457.7,482,457.7z"/>
	<ellipse class="st38" cx="482" cy="451" rx="145.2" ry="73.2"/>
	<circle class="st39" cx="482" cy="360" r="140.9"/>
	<circle class="st38" cx="482" cy="352" r="128"/>
	<circle class="st37" cx="482" cy="352" r="120"/>
	<g class="st40">
		<path class="st41" d="M428,304L428,304c5,0,9,4,9,9v36c0,5-4,9-9,9l0,0c-5,0-9-4-9-9v-36C419,308,423,304,428,304z"/>
		<path class="st41" d="M500,304L500,304c5,0,9,4,9,9v78c0,5-4,9-9,9l0,0c-5,0-9-4-9-9v-78C491,308,495,304,500,304z"/>
		<path class="st41" d="M464,304L464,304c5,0,9,4,9,9v6c0,5-4,9-9,9l0,0c-5,0-9-4-9-9v-6C455,308,459,304,464,304z"/>
		<path class="st41" d="M464,346L464,346c5,0,9,4,9,9v36c0,5-4,9-9,9l0,0c-5,0-9-4-9-9v-36C455,350,459,346,464,346z"/>
		<path class="st41" d="M536,304L536,304c5,0,9,4,9,9v36c0,5-4,9-9,9l0,0c-5,0-9-4-9-9v-36C527,308,531,304,536,304z"/>
		<path class="st41" d="M428,376L428,376c5,0,9,4,9,9v6c0,5-4,9-9,9l0,0c-5,0-9-4-9-9v-6C419,380,423,376,428,376z"/>
		<path class="st41" d="M536,376L536,376c5,0,9,4,9,9v6c0,5-4,9-9,9l0,0c-5,0-9-4-9-9v-6C527,380,531,376,536,376z"/>
	</g>
	<path class="st37" d="M482,578.9c-129.5,0-234,23.6-234,52.7v-68.9c0-29.1,104.5-52.7,234-52.7s234,23.6,234,52.7v68.9
		C716,602.5,611.5,578.9,482,578.9z"/>
</g>
<radialGradient id="SVGID_34_" cx="402.1207" cy="623.838" r="7.2928" gradientTransform="matrix(0.9995 3.258330e-02 -3.176285e-02 0.9743 -206.6126 -127.3813)" gradientUnits="userSpaceOnUse">
	<stop  offset="0.4894" style="stop-color:#C69C6D"/>
	<stop  offset="1" style="stop-color:#8C6239"/>
</radialGradient>
<circle class="st42" cx="175.3" cy="495.8" r="8.7"/>
<radialGradient id="SVGID_35_" cx="410.2337" cy="879.1348" r="7.2928" gradientTransform="matrix(0.9995 3.258330e-02 -3.176285e-02 0.9743 -206.6126 -127.3813)" gradientUnits="userSpaceOnUse">
	<stop  offset="0.4894" style="stop-color:#C69C6D"/>
	<stop  offset="1" style="stop-color:#8C6239"/>
</radialGradient>
<circle class="st43" cx="175.3" cy="744.8" r="8.7"/>
<radialGradient id="SVGID_36_" cx="985.7925" cy="604.3184" r="7.2928" gradientTransform="matrix(0.9995 3.258330e-02 -3.176285e-02 0.9743 -206.6126 -127.3813)" gradientUnits="userSpaceOnUse">
	<stop  offset="0.4894" style="stop-color:#C69C6D"/>
	<stop  offset="1" style="stop-color:#8C6239"/>
</radialGradient>
<circle class="st44" cx="759.3" cy="495.8" r="8.7"/>
<radialGradient id="SVGID_37_" cx="993.9055" cy="859.6152" r="7.2928" gradientTransform="matrix(0.9995 3.258330e-02 -3.176285e-02 0.9743 -206.6126 -127.3813)" gradientUnits="userSpaceOnUse">
	<stop  offset="0.4894" style="stop-color:#C69C6D"/>
	<stop  offset="1" style="stop-color:#8C6239"/>
</radialGradient>
<circle class="st45" cx="759.3" cy="744.8" r="8.7"/>
</svg>
